<?xml version="1.0" encoding="UTF-8"?>
<svg id="Capa_2" data-name="Capa 2" xmlns="http://www.w3.org/2000/svg" viewBox="0 0 790.28 160.93">
  <defs>
    <style>
      .cls-1 {
        letter-spacing: -.03em;
      }

      .cls-2 {
        fill: #fff;
        font-family: Gabarito-Regular, Gabarito;
        font-size: 142.1px;
        font-variation-settings: 'wght' 400;
      }

      .cls-3 {
        letter-spacing: -.16em;
      }

      .cls-4 {
        letter-spacing: -.02em;
      }

      .cls-5 {
        letter-spacing: -.03em;
      }

      .cls-6, .cls-7 {
        stroke-width: 0px;
      }

      .cls-7 {
        fill: #ffe91d;
      }

      .cls-8 {
        letter-spacing: -.03em;
      }

      .cls-9 {
        letter-spacing: -.03em;
      }

      .cls-10 {
        letter-spacing: -.03em;
      }

      .cls-11 {
        letter-spacing: -.02em;
      }

      .cls-12 {
        letter-spacing: -.02em;
      }
    </style>
  </defs>
  <g id="Capa_1-2" data-name="Capa 1">
    <g>
      <text class="cls-2" transform="translate(142.39 119.44)"><tspan class="cls-9" x="0" y="0">F</tspan><tspan class="cls-5" x="69.22" y="0">l</tspan><tspan class="cls-12" x="100.75" y="0">u</tspan><tspan x="175.81" y="0">x</tspan><tspan class="cls-3" x="245.29" y="0"> </tspan><tspan class="cls-8" x="259.5" y="0">A</tspan><tspan class="cls-11" x="349.66" y="0">s</tspan><tspan class="cls-4" x="407.9" y="0">s</tspan><tspan class="cls-1" x="466.28" y="0">e</tspan><tspan class="cls-10" x="539.35" y="0">t</tspan><tspan x="586.5" y="0">s</tspan></text>
      <g>
        <g>
          <path class="cls-6" d="m56.8,15.48c31.32,0,56.8,25.48,56.8,56.8s-25.48,56.8-56.8,56.8S0,103.6,0,72.28,25.48,15.48,56.8,15.48Zm0,105.97h.16c27.03-.09,49-22.11,49-49.16s-21.97-49.08-49-49.17h-.16c-27.11,0-49.17,22.06-49.17,49.17s22.06,49.16,49.17,49.16Z"/>
          <path class="cls-7" d="m105.89,72.28c0-27.05-21.97-49.08-49-49.17h.16c27.11,0,49.16,22.06,49.16,49.17s-22.06,49.16-49.16,49.16h-.16c27.03-.09,49-22.11,49-49.16Z"/>
          <path class="cls-7" d="m7.8,72.28c0,27.06,21.97,49.07,49,49.16,27.03-.09,49-22.11,49-49.16s-21.97-49.08-49-49.17c-27.04.09-49,22.11-49,49.17Z"/>
        </g>
        <g>
          <path class="cls-6" d="m26.49,86.51c.09.19,9.51,18.57,30.57,18.57s30.02-18.46,30.1-18.65c.89-1.91.06-4.19-1.84-5.08-.92-.43-1.96-.48-2.92-.13-.96.35-1.72,1.05-2.16,1.96-.27.58-6.88,14.26-23.19,14.26-6.75,0-12.76-2.37-17.87-7.03-3.94-3.6-5.85-7.28-5.87-7.31-.92-1.87-3.22-2.64-5.11-1.71-.92.46-1.6,1.24-1.92,2.21-.33.97-.25,2.01.2,2.92Z"/>
          <g>
            <path class="cls-6" d="m68.61,59.04c0,3.89,3.17,7.06,7.06,7.06s7.06-3.17,7.06-7.06-3.17-7.06-7.06-7.06-7.06,3.17-7.06,7.06Z"/>
            <path class="cls-6" d="m30.22,59.04c0,3.89,3.17,7.06,7.06,7.06s7.06-3.17,7.06-7.06-3.16-7.06-7.06-7.06-7.06,3.17-7.06,7.06Z"/>
            <path class="cls-6" d="m49.42,59.04c0,3.89,3.17,7.06,7.06,7.06s7.06-3.17,7.06-7.06-3.16-7.06-7.06-7.06-7.06,3.17-7.06,7.06Z"/>
          </g>
        </g>
      </g>
    </g>
  </g>
</svg>